<?xml version="1.0" encoding="UTF-8"?>
<svg width="48" height="41" fill="none" version="1.1" viewBox="0 0 48 41" xmlns="http://www.w3.org/2000/svg">
 <g clip-path="url(#clip0)">
  <path d="m42.589 8.5255h-5.0696v-5.0696c0-.89637-.3561-1.756-.9899-2.3898-.6338-.63383-1.4935-.98991-2.3898-.98991h-20.278c-.8964 0-1.756.35608-2.3899.98991-.6338.63382-.9899 1.4935-.9899 2.3898v5.0696h-5.0696c-1.3446 0-2.634.53412-3.5848 1.4849-.95073.9507-1.4849 2.2402-1.4849 3.5848v23.658c0 .8963.35608 1.756.9899 2.3898.63383.6339 1.4935.9899 2.3898.9899h40.557c.8964 0 1.756-.356 2.3898-.9899.6339-.6338.9899-1.4935.9899-2.3898v-23.658c0-1.3446-.5341-2.6341-1.4848-3.5848-.9507-.95074-2.2402-1.4849-3.5848-1.4849zm-28.728-5.0696h20.278v5.0696h-20.278v-5.0696zm30.418 33.797h-40.557v-15.209h13.519v8.4494h13.519v-8.4494h13.519v15.209zm-23.658-15.209h6.7595v5.0696h-6.7595v-5.0696zm-16.899-3.3797v-5.0696c0-.4482.17804-.878.49496-1.195.31691-.3169.74673-.4949 1.1949-.4949h37.177c.4482 0 .878.178 1.195.4949.3169.317.4949.7468.4949 1.195v5.0696h-40.557z" fill="#0D5C63" style="fill:#ffffff"/>
 </g>
 <defs>
  <clipPath id="clip0">
   <rect width="48" height="40.709" fill="white"/>
  </clipPath>
 </defs>
</svg>
