<?xml version="1.0" encoding="UTF-8"?>
<svg width="48" height="48" fill="none" version="1.1" viewBox="0 0 48 48" xmlns="http://www.w3.org/2000/svg">
 <g clip-path="url(#clip0)" fill="#0D5C63">
  <path d="m43.65 13.75h-39.3c-.018 0-.03.0119-.03.0296v5.4053c0 3.5442 2.94 6.4188 6.558 6.4188 2.442 0 4.572-1.3039 5.706-3.242.174-.3023.504-.4919.858-.4919s.678.1896.858.4919c1.128 1.9381 3.258 3.242 5.7 3.242 2.448 0 4.584-1.3099 5.706-3.2539.174-.2963.492-.48.834-.48h.036c.348 0 .66.1837.834.48 1.128 1.944 3.264 3.2539 5.712 3.2539 3.618 0 6.558-2.8746 6.558-6.4188v-5.4053c0-.0177-.012-.0296-.03-.0296z" opacity=".15" style="fill:#ffffff"/>
  <path d="m46.2 9.4888v-7.5923c0-1.0491-.858-1.8966-1.92-1.8966h-40.56c-1.062 0-1.92.84754-1.92 1.8966v7.5923c-1.002.05927-1.8.88315-1.8 1.8906v7.8056c-.0038424 1.4346.29022 2.8547.864 4.1725.258.6046.576 1.1735.936 1.7129v20.448c0 1.0432.858 1.8966 1.92 1.8966h40.56c1.062 0 1.92-.8475 1.92-1.8966v-20.448c.3657-.5407.679-1.1142.936-1.7129.57-1.3216.864-2.7263.864-4.1725v-7.8056c0-1.0075-.798-1.8314-1.8-1.8906zm-40.08-5.2215h35.76v5.2156h-35.76v-5.2156zm21.72 38.886h-7.68v-6.1698h7.68v6.1698zm14.064 0h-10.224v-8.0664c0-1.049-.858-1.8966-1.92-1.8966h-11.52c-1.062 0-1.92.8476-1.92 1.8966v8.0664h-10.2v-14.355c.174.0829.354.1659.54.237 1.338.5572 2.76.8357 4.224.8357 1.464 0 2.88-.2785 4.224-.8357.828-.3437 1.608-.7823 2.322-1.3098.012-.0059.024-.0059.036 0 .7162.5297 1.4962.9697 2.322 1.3098 1.338.5572 2.76.8357 4.224.8357s2.88-.2785 4.224-.8357c.828-.3437 1.608-.7823 2.322-1.3098.012-.0059.024-.0059.036 0 .7162.5297 1.4962.9697 2.322 1.3098 1.338.5572 2.76.8357 4.224.8357s2.88-.2785 4.224-.8357c.18-.077.36-.1541.54-.237v14.355zm1.776-23.968c0 3.5443-2.94 6.4188-6.558 6.4188-2.448 0-4.584-1.3098-5.712-3.2538-.174-.2964-.486-.4801-.834-.4801h-.036c-.342 0-.66.1837-.834.4801-.5756.9916-1.4068 1.8151-2.409 2.3866s-2.1398.8707-3.297.8672c-2.442 0-4.572-1.3039-5.7-3.242-.18-.3022-.504-.4919-.858-.4919s-.684.1897-.858.4919c-.579.9879-1.4112 1.8076-2.4129 2.3768-1.0017.5691-2.1375.8675-3.2931.8652-3.618 0-6.558-2.8745-6.558-6.4188v-5.4052c0-.0178.012-.0297.03-.0297h39.3c.018 0 .03.0119.03.0297v5.4052z" style="fill:#ffffff"/>
 </g>
 <defs>
  <clipPath id="clip0">
   <rect width="48" height="47.415" fill="white"/>
  </clipPath>
 </defs>
</svg>
