<?xml version="1.0" encoding="UTF-8"?>
<svg width="48" height="38" fill="none" version="1.1" viewBox="0 0 48 38" xmlns="http://www.w3.org/2000/svg">
 <g clip-path="url(#clip0)" fill="#ffffff">
  <path d="m29.142 8.624h11.998v3.4453h-11.998z" style="fill:#ffffff"/>
  <path d="m29.142 17.237h11.998v3.4453h-11.998z" style="fill:#ffffff"/>
  <path d="m29.142 25.851h11.998v3.4453h-11.998z" style="fill:#ffffff"/>
  <path d="m44.567.01123h-41.136c-.90888.0009121-1.7803.36419-2.4229 1.0101-.64267.64592-1.0041 1.5217-1.005 2.4352v31.008c.00090751.9135.36236 1.7893 1.005 2.4352.64268.6459 1.5141 1.0092 2.4229 1.0101h41.136c.9087-.0013 1.7798-.3648 2.4224-1.0106s1.0042-1.5214 1.0055-2.4347v-31.008c-9e-4-.91348-.3623-1.7893-1.005-2.4352-.6426-.64593-1.514-1.0092-2.4229-1.0101zm-41.136 3.4453h18.854v31.008h-18.854zm22.282 31.008v-31.008h18.854l.0034 31.008z" style="fill:#ffffff"/>
 </g>
 <defs>
  <clipPath id="clip0">
   <rect width="48" height="37.92" fill="white"/>
  </clipPath>
 </defs>
</svg>
